{
    "asset" : {
        "generator" : "Khronos glTF Blender I/O v1.7.33",
        "version" : "2.0"
    },
    "scene" : 0,
    "scenes" : [
        {
            "name" : "Scene",
            "nodes" : [
                0
            ]
        }
    ],
    "nodes" : [
        {
            "mesh" : 0,
            "name" : "Crystal_Small",
            "scale" : [
                0.26141291856765747,
                0.26141291856765747,
                0.26141291856765747
            ]
        }
    ],
    "materials" : [
        {
            "doubleSided" : true,
            "name" : "Atlas",
            "pbrMetallicRoughness" : {
                "baseColorTexture" : {
                    "index" : 0
                },
                "metallicFactor" : 0,
                "roughnessFactor" : 0.5
            }
        }
    ],
    "meshes" : [
        {
            "name" : "Cube.515",
            "primitives" : [
                {
                    "attributes" : {
                        "POSITION" : 0,
                        "NORMAL" : 1,
                        "TEXCOORD_0" : 2
                    },
                    "indices" : 3,
                    "material" : 0
                }
            ]
        }
    ],
    "textures" : [
        {
            "sampler" : 0,
            "source" : 0
        }
    ],
    "images" : [
        {
            "bufferView" : 4,
            "mimeType" : "image/png",
            "name" : "Atlas"
        }
    ],
    "accessors" : [
        {
            "bufferView" : 0,
            "componentType" : 5126,
            "count" : 107,
            "max" : [
                0.5313423275947571,
                3.177396535873413,
                2.389111042022705
            ],
            "min" : [
                -2.448491096496582,
                0.035500504076480865,
                -0.7133088111877441
            ],
            "type" : "VEC3"
        },
        {
            "bufferView" : 1,
            "componentType" : 5126,
            "count" : 107,
            "type" : "VEC3"
        },
        {
            "bufferView" : 2,
            "componentType" : 5126,
            "count" : 107,
            "type" : "VEC2"
        },
        {
            "bufferView" : 3,
            "componentType" : 5123,
            "count" : 198,
            "type" : "SCALAR"
        }
    ],
    "bufferViews" : [
        {
            "buffer" : 0,
            "byteLength" : 1284,
            "byteOffset" : 0
        },
        {
            "buffer" : 0,
            "byteLength" : 1284,
            "byteOffset" : 1284
        },
        {
            "buffer" : 0,
            "byteLength" : 856,
            "byteOffset" : 2568
        },
        {
            "buffer" : 0,
            "byteLength" : 396,
            "byteOffset" : 3424
        },
        {
            "buffer" : 0,
            "byteLength" : 3567,
            "byteOffset" : 3820
        }
    ],
    "samplers" : [
        {
            "magFilter" : 9728,
            "minFilter" : 9984
        }
    ],
    "buffers" : [
        {
            "byteLength" : 7388,
            "uri" : "data:application/octet-stream;base64,"
        }
    ]
}
